<svg width="278" height="31" viewBox="0 0 278 31" fill="none" xmlns="http://www.w3.org/2000/svg">
		<g clip-path="url(#clip0_286_978)">
			<path d="M61.2674 0H32.1904V30.248H61.2674V0Z" fill="#1BB57C"/>
			<path
				d="M46.7299 4.80469L49.3649 12.8477L57.5809 12.6887L50.9019 17.6777L53.4369 25.4438L46.7309 20.6777L40.0249 25.4438L42.4859 17.6777L35.8799 12.6887L44.1689 12.7747L46.7299 4.80469Z"
				fill="white"/>
			<path d="M51.5945 19.7637C51.3755 19.7637 46.7285 20.6787 46.7285 20.6787L50.8995 17.6787L51.5945 19.7637Z"
				  fill="#14885D"/>
			<path d="M29.1297 0H0.0527344V30.248H29.1297V0Z" fill="#1BB57C"/>
			<path
				d="M14.5912 4.80518L17.2263 12.8481L25.4423 12.6892L18.7632 17.6782L21.2982 25.4443L14.5922 20.6782L7.88623 25.4443L10.3472 17.6782L3.74121 12.6892L12.0302 12.7751L14.5912 4.80518Z"
				fill="white"/>
			<path d="M19.4578 19.7642C19.2388 19.7642 14.5918 20.6792 14.5918 20.6792L18.7628 17.6792L19.4578 19.7642Z"
				  fill="#14885D"/>
			<path d="M29.1297 0H0.0527344V30.248H29.1297V0Z" fill="#1BB57C"/>
			<path
				d="M14.5912 4.80518L17.2263 12.8481L25.4423 12.6892L18.7632 17.6782L21.2982 25.4443L14.5922 20.6782L7.88623 25.4443L10.3472 17.6782L3.74121 12.6892L12.0302 12.7751L14.5912 4.80518Z"
				fill="white"/>
			<path d="M19.4578 19.7642C19.2388 19.7642 14.5918 20.6792 14.5918 20.6792L18.7628 17.6792L19.4578 19.7642Z"
				  fill="#14885D"/>
			<path d="M93.4071 0H64.3301V30.248H93.4071V0Z" fill="#1BB57C"/>
			<path
				d="M78.8685 4.80469L81.5035 12.8477L89.7195 12.6887L83.0405 17.6777L85.5756 25.4438L78.8696 20.6777L72.1636 25.4438L74.6255 17.6777L68.0195 12.6887L76.3085 12.7747L78.8685 4.80469Z"
				fill="white"/>
			<path d="M83.7352 19.7637C83.5162 19.7637 78.8682 20.6787 78.8682 20.6787L83.0392 17.6787L83.7352 19.7637Z"
				  fill="#14885D"/>
			<path d="M125.545 0H96.4678V30.248H125.545V0Z" fill="#1BB57C"/>
			<path
				d="M111.006 4.80469L113.641 12.8477L121.857 12.6887L115.178 17.6777L117.713 25.4438L111.007 20.6777L104.301 25.4438L106.763 17.6777L100.157 12.6887L108.446 12.7747L111.006 4.80469Z"
				fill="white"/>
			<path d="M115.873 19.7637C115.654 19.7637 111.007 20.6787 111.007 20.6787L115.178 17.6787L115.873 19.7637Z"
				  fill="#14885D"/>
			<path d="M157.683 0H128.606V30.248H157.683V0Z" fill="#1BB57C"/>
			<path
				d="M143.147 4.80469L145.782 12.8477L153.998 12.6887L147.319 17.6777L149.854 25.4438L143.148 20.6777L136.442 25.4438L138.904 17.6777L132.298 12.6887L140.587 12.7747L143.147 4.80469Z"
				fill="white"/>
			<path d="M148.01 19.7637C147.791 19.7637 143.145 20.6787 143.145 20.6787L147.316 17.6787L148.01 19.7637Z"
				  fill="#14885D"/>
			<path
				d="M178.491 0.772949L181.997 11.4729L192.931 11.261L184.042 17.9011L187.415 28.2361L178.491 21.8931L169.567 28.2361L172.843 17.9011L164.052 11.261L175.083 11.376L178.491 0.772949Z"
				fill="#1BB67D"/>
			<path d="M184.967 20.6802C184.674 20.6802 178.491 21.8972 178.491 21.8972L184.043 17.9043L184.967 20.6802Z"
				  fill="#0A6238"/>
			<path
				d="M202.025 21.481V9.48096H197.925V8.00096H207.905V9.48096H203.785V21.481H202.025ZM208.448 21.481V14.821C208.448 13.681 208.428 12.701 208.368 11.801H209.908L209.968 13.701H210.048C210.488 12.401 211.548 11.581 212.728 11.581C212.928 11.581 213.068 11.601 213.228 11.641V13.301C213.048 13.261 212.868 13.241 212.628 13.241C211.388 13.241 210.508 14.181 210.268 15.501C210.228 15.741 210.188 16.021 210.188 16.321V21.481H208.448ZM223.091 11.801V18.841C223.091 19.841 223.111 20.721 223.171 21.481H221.611L221.511 19.901H221.471C221.011 20.681 219.991 21.701 218.271 21.701C216.751 21.701 214.931 20.861 214.931 17.461V11.801H216.691V17.161C216.691 19.001 217.251 20.241 218.851 20.241C220.031 20.241 220.851 19.421 221.171 18.641C221.271 18.381 221.331 18.061 221.331 17.741V11.801H223.091ZM225.327 21.021L225.767 19.681C226.287 20.021 227.207 20.381 228.087 20.381C229.367 20.381 229.967 19.741 229.967 18.941C229.967 18.101 229.467 17.641 228.167 17.161C226.427 16.541 225.607 15.581 225.607 14.421C225.607 12.861 226.867 11.581 228.947 11.581C229.927 11.581 230.787 11.861 231.327 12.181L230.887 13.461C230.507 13.221 229.807 12.901 228.907 12.901C227.867 12.901 227.287 13.501 227.287 14.221C227.287 15.021 227.867 15.381 229.127 15.861C230.807 16.501 231.667 17.341 231.667 18.781C231.667 20.481 230.347 21.681 228.047 21.681C226.987 21.681 226.007 21.421 225.327 21.021ZM234.337 9.48096L236.057 9.02096V11.801H238.577V13.141H236.057V18.361C236.057 19.561 236.397 20.241 237.377 20.241C237.837 20.241 238.177 20.181 238.397 20.121L238.477 21.441C238.137 21.581 237.597 21.681 236.917 21.681C236.097 21.681 235.437 21.421 235.017 20.941C234.517 20.421 234.337 19.561 234.337 18.421V13.141H232.837V11.801H234.337V9.48096ZM240.558 25.441V14.961C240.558 13.721 240.518 12.721 240.478 11.801H242.058L242.138 13.461H242.178C242.898 12.281 244.038 11.581 245.618 11.581C247.958 11.581 249.718 13.561 249.718 16.501C249.718 19.981 247.598 21.701 245.318 21.701C244.038 21.701 242.918 21.141 242.338 20.181H242.298V25.441H240.558ZM242.298 15.881V17.541C242.298 17.801 242.338 18.041 242.378 18.261C242.698 19.481 243.758 20.321 245.018 20.321C246.878 20.321 247.958 18.801 247.958 16.581C247.958 14.641 246.938 12.981 245.078 12.981C243.878 12.981 242.758 13.841 242.418 15.161C242.358 15.381 242.298 15.641 242.298 15.881ZM253.704 21.481H251.944V11.801H253.704V21.481ZM252.824 7.98096C253.484 7.98096 253.904 8.46096 253.904 9.08096C253.924 9.68096 253.484 10.161 252.784 10.161C252.164 10.161 251.724 9.68096 251.724 9.08096C251.724 8.46096 252.184 7.98096 252.824 7.98096ZM256.632 21.481V7.28096H258.392V21.481H256.632ZM265.458 11.581C268.238 11.581 270.118 13.601 270.118 16.561C270.118 20.141 267.638 21.701 265.298 21.701C262.678 21.701 260.658 19.781 260.658 16.721C260.658 13.481 262.778 11.581 265.458 11.581ZM265.418 12.901C263.338 12.901 262.438 14.821 262.438 16.661C262.438 18.781 263.658 20.381 265.378 20.381C267.058 20.381 268.318 18.801 268.318 16.621C268.318 14.981 267.498 12.901 265.418 12.901ZM272.735 9.48096L274.455 9.02096V11.801H276.975V13.141H274.455V18.361C274.455 19.561 274.795 20.241 275.775 20.241C276.235 20.241 276.575 20.181 276.795 20.121L276.875 21.441C276.535 21.581 275.995 21.681 275.315 21.681C274.495 21.681 273.835 21.421 273.415 20.941C272.915 20.421 272.735 19.561 272.735 18.421V13.141H271.235V11.801H272.735V9.48096Z"
				fill="black"/>
		</g>
		<defs>
			<clipPath id="clip0_286_978">
				<rect width="277.892" height="30.248" fill="white" transform="translate(0.0537109)"/>
			</clipPath>
		</defs>
	</svg>